<svg width="16" height="16" viewBox="0 0 16 16" fill="none" xmlns="http://www.w3.org/2000/svg">
<g clip-path="url(#clip0_1_16)">
<path d="M10.544 0.888885C9.89552 5.94666 10.0866 7.43644 5.55952 8C10.0103 8.69066 10.0743 10.2489 10.544 15.1111C11.1633 10.2204 11.0428 8.75555 15.5294 8C11.008 7.44533 11.1595 5.94133 10.544 0.888885ZM3.16046 1.01955C2.81129 3.74844 2.91388 4.55289 0.470581 4.85689C2.87246 5.23022 2.90729 6.07022 3.16046 8.69422C3.49458 6.05422 3.42964 5.264 5.85129 4.85689C3.41082 4.55733 3.4927 3.74577 3.16046 1.01955ZM5.6094 8.68088C5.3647 10.5947 5.43623 11.1582 3.72329 11.3716C5.40799 11.6329 5.43152 12.2222 5.6094 14.0622C5.8447 12.2116 5.79764 11.6569 7.49552 11.3716C5.7854 11.1618 5.84282 10.5929 5.6094 8.68088Z" fill="#011F3A" stroke="#011F3A" stroke-width="0.621" stroke-linecap="square"/>
</g>
<defs>
<clipPath id="clip0_1_16">
<rect width="16" height="16" fill="white"/>
</clipPath>
</defs>
</svg>
