<svg width="120" height="24" viewBox="0 0 120 24" fill="none" xmlns="http://www.w3.org/2000/svg">
<g clip-path="url(#clip0_2_72)">
<path d="M20 17H22V19H2V17H4V10C4 7.87827 4.84285 5.84344 6.34315 4.34315C7.84344 2.84285 9.87827 2 12 2C14.1217 2 16.1566 2.84285 17.6569 4.34315C19.1571 5.84344 20 7.87827 20 10V17ZM18 17V10C18 8.4087 17.3679 6.88258 16.2426 5.75736C15.1174 4.63214 13.5913 4 12 4C10.4087 4 8.88258 4.63214 7.75736 5.75736C6.63214 6.88258 6 8.4087 6 10V17H18ZM9 21H15V23H9V21Z" fill="#828282"/>
<circle cx="17.5" cy="6.5" r="4" fill="#FF0000" stroke="white"/>
</g>
<g clip-path="url(#clip1_2_72)">
<path d="M68.998 13.242V20H69.9979V22H49.9999V20H50.9998V13.242C50.3842 12.8311 49.8796 12.2745 49.5308 11.6218C49.1819 10.969 48.9996 10.2402 49 9.5C49 8.673 49.224 7.876 49.6329 7.197L52.3447 2.5C52.4324 2.34798 52.5586 2.22175 52.7106 2.13398C52.8626 2.04621 53.0351 2 53.2106 2H66.7882C66.9637 2 67.1361 2.04621 67.2881 2.13398C67.4401 2.22175 67.5664 2.34798 67.6541 2.5L70.3558 7.182C70.9523 8.17287 71.1441 9.35553 70.8912 10.4841C70.6383 11.6127 69.9602 12.6005 68.998 13.242ZM66.9982 13.972C66.3107 14.0491 65.6147 13.9665 64.9643 13.7307C64.3139 13.4948 63.7268 13.1119 63.2486 12.612C62.8288 13.0511 62.3244 13.4005 61.7659 13.6393C61.2074 13.878 60.6063 14.001 59.9989 14.001C59.3916 14.0013 58.7906 13.8786 58.2321 13.6402C57.6736 13.4018 57.1691 13.0527 56.7492 12.614C56.2709 13.1138 55.6837 13.4964 55.0333 13.7321C54.383 13.9678 53.687 14.0503 52.9996 13.973V20H66.9982V13.973V13.972ZM53.7885 4L51.3558 8.213C51.1194 8.79714 51.1123 9.44903 51.3359 10.0382C51.5595 10.6273 51.9974 11.1103 52.5618 11.3904C53.1263 11.6705 53.7757 11.7271 54.38 11.5488C54.9844 11.3706 55.4992 10.9706 55.8213 10.429C56.1563 9.592 57.3412 9.592 57.6771 10.429C57.8624 10.8934 58.1827 11.2916 58.5966 11.5721C59.0104 11.8526 59.4989 12.0025 59.9989 12.0025C60.4989 12.0025 60.9873 11.8526 61.4012 11.5721C61.8151 11.2916 62.1354 10.8934 62.3207 10.429C62.6556 9.592 63.8405 9.592 64.1765 10.429C64.3062 10.7484 64.5007 11.0376 64.7475 11.2783C64.9944 11.519 65.2884 11.706 65.611 11.8275C65.9337 11.9491 66.278 12.0026 66.6223 11.9847C66.9666 11.9668 67.3034 11.8778 67.6117 11.7234C67.92 11.569 68.193 11.3525 68.4136 11.0875C68.6342 10.8225 68.7975 10.5148 68.8935 10.1836C68.9894 9.85238 69.0157 9.50493 68.9709 9.16305C68.9261 8.82118 68.8111 8.49227 68.633 8.197L66.2083 4H53.7895H53.7885Z" fill="#828282"/>
</g>
<g clip-path="url(#clip2_2_72)">
<path d="M108 2C109.591 2 111.117 2.63214 112.243 3.75736C113.368 4.88258 114 6.4087 114 8V9H118V11H116.833L116.076 20.083C116.055 20.3329 115.941 20.5658 115.757 20.7357C115.572 20.9055 115.331 20.9999 115.08 21H100.92C100.669 20.9999 100.428 20.9055 100.243 20.7357C100.059 20.5658 99.9448 20.3329 99.924 20.083L99.166 11H98V9H102V8C102 6.4087 102.632 4.88258 103.757 3.75736C104.883 2.63214 106.409 2 108 2ZM114.826 11H101.173L101.84 19H114.159L114.826 11ZM109 13V17H107V13H109ZM105 13V17H103V13H105ZM113 13V17H111V13H113ZM108 4C106.974 4 105.987 4.39444 105.243 5.10172C104.5 5.80901 104.056 6.77504 104.005 7.8L104 8V9H112V8C112 6.97376 111.606 5.98677 110.898 5.24319C110.191 4.4996 109.225 4.05631 108.2 4.005L108 4Z" fill="#828282"/>
</g>
<defs>
<clipPath id="clip0_2_72">
<rect width="24" height="24" fill="white"/>
</clipPath>
<clipPath id="clip1_2_72">
<rect width="24" height="24" fill="white" transform="translate(48)"/>
</clipPath>
<clipPath id="clip2_2_72">
<rect width="24" height="24" fill="white" transform="translate(96)"/>
</clipPath>
</defs>
</svg>
